<svg width="199" height="64" fill="none" xmlns="http://www.w3.org/2000/svg"><g clip-path="url(#clip0_1801_19182)"><path d="M191.065.47H7.535A7.059 7.059 0 00.477 7.53v48.94a7.059 7.059 0 007.058 7.06h183.53a7.06 7.06 0 007.059-7.06V7.53a7.06 7.06 0 00-7.059-7.06z" fill="#000"/><path d="M39.433 31.45a7.948 7.948 0 011.026-3.807 7.9 7.9 0 012.725-2.837 8.077 8.077 0 00-2.77-2.48 8.033 8.033 0 00-3.584-.972c-2.673-.282-5.265 1.608-6.627 1.608-1.389 0-3.486-1.58-5.745-1.533a8.431 8.431 0 00-4.133 1.239 8.487 8.487 0 00-2.988 3.125c-3.079 5.358-.782 13.231 2.167 17.562 1.476 2.12 3.2 4.49 5.457 4.405 2.208-.092 3.033-1.415 5.699-1.415 2.64 0 3.414 1.415 5.716 1.362 2.37-.039 3.863-2.13 5.287-4.27a17.571 17.571 0 002.417-4.949 7.621 7.621 0 01-3.378-2.816 7.678 7.678 0 01-1.27-4.222zm-4.35-12.944a7.822 7.822 0 001.774-5.585 7.88 7.88 0 00-5.107 2.655 7.428 7.428 0 00-1.82 5.378 6.497 6.497 0 002.856-.628 6.531 6.531 0 002.297-1.82zM73.24 42.391h-7.535l-1.81 5.37h-3.192l7.138-19.868h3.316l7.138 19.868h-3.247l-1.808-5.37zm-6.755-2.478h5.973l-2.944-8.716h-.083l-2.946 8.716zm27.225.607c0 4.502-2.397 7.394-6.015 7.394a4.867 4.867 0 01-2.63-.612 4.899 4.899 0 01-1.905-1.923h-.069v7.175h-2.958V33.276h2.864v2.41h.054a5.127 5.127 0 011.943-1.918 5.094 5.094 0 012.647-.643c3.658 0 6.07 2.906 6.07 7.395zm-3.04 0c0-2.933-1.509-4.86-3.81-4.86-2.26 0-3.781 1.968-3.781 4.86 0 2.919 1.52 4.873 3.781 4.873 2.301 0 3.81-1.913 3.81-4.873zm18.907 0c0 4.502-2.397 7.394-6.015 7.394a4.865 4.865 0 01-2.629-.612 4.898 4.898 0 01-1.906-1.923h-.068v7.175H96V33.276h2.864v2.41h.055a5.124 5.124 0 011.942-1.918 5.096 5.096 0 012.647-.643c3.658 0 6.069 2.906 6.069 7.395zm-3.041 0c0-2.933-1.507-4.86-3.808-4.86-2.261 0-3.782 1.968-3.782 4.86 0 2.919 1.521 4.873 3.782 4.873 2.301 0 3.808-1.914 3.808-4.873zm13.524 1.706c.219 1.97 2.123 3.264 4.727 3.264 2.493 0 4.288-1.294 4.288-3.07 0-1.543-1.083-2.466-3.645-3.1l-2.563-.62c-3.63-.88-5.315-2.587-5.315-5.356 0-3.428 2.973-5.783 7.194-5.783 4.177 0 7.041 2.355 7.137 5.783h-2.986c-.179-1.983-1.81-3.18-4.193-3.18-2.383 0-4.014 1.211-4.014 2.974 0 1.405 1.041 2.231 3.589 2.864l2.178.538c4.057.964 5.742 2.601 5.742 5.507 0 3.718-2.947 6.046-7.632 6.046-4.385 0-7.345-2.274-7.536-5.868h3.029zm18.532-12.378v3.428h2.74v2.355h-2.74v7.986c0 1.24.548 1.819 1.753 1.819.326-.006.65-.03.974-.07v2.341a8.091 8.091 0 01-1.643.138c-2.919 0-4.057-1.102-4.057-3.911V35.63h-2.096v-2.355h2.096v-3.428h2.973zm4.33 10.672c0-4.558 2.671-7.422 6.836-7.422 4.178 0 6.837 2.864 6.837 7.422 0 4.57-2.644 7.421-6.837 7.421-4.191 0-6.836-2.851-6.836-7.422zm10.659 0c0-3.127-1.426-4.972-3.823-4.972-2.398 0-3.822 1.859-3.822 4.971 0 3.14 1.424 4.97 3.822 4.97 2.397 0 3.823-1.83 3.823-4.97zm5.45-7.244h2.822v2.466h.069a3.46 3.46 0 011.271-1.927 3.426 3.426 0 012.196-.69c.341-.002.68.036 1.014.11v2.782a4.122 4.122 0 00-1.33-.18 2.967 2.967 0 00-2.304.954 3.008 3.008 0 00-.779 2.379v8.592h-2.959V33.276zm21.018 10.231c-.398 2.63-2.947 4.434-6.207 4.434-4.193 0-6.795-2.823-6.795-7.353 0-4.544 2.616-7.49 6.671-7.49 3.988 0 6.496 2.753 6.496 7.145v1.019h-10.181v.18a3.797 3.797 0 001.018 2.93 3.754 3.754 0 002.86 1.172c.699.066 1.4-.096 2.001-.464a3.278 3.278 0 001.328-1.573h2.809zm-10.002-4.323h7.207a3.504 3.504 0 00-.969-2.615 3.464 3.464 0 00-2.567-1.062 3.63 3.63 0 00-2.598 1.07 3.684 3.684 0 00-1.073 2.607zM66.119 12.938a4.185 4.185 0 013.352 1.308 4.229 4.229 0 011.117 3.435c0 3.05-1.64 4.804-4.47 4.804h-3.43v-9.547h3.43zm-1.956 8.196h1.79a2.973 2.973 0 002.38-.967 3.004 3.004 0 00.754-2.466 3.023 3.023 0 00-.766-2.45 2.994 2.994 0 00-2.367-.964h-1.791v6.847zm8.095-2.255a3.43 3.43 0 01.868-2.62 3.4 3.4 0 012.513-1.118 3.38 3.38 0 012.513 1.117 3.417 3.417 0 01.868 2.62 3.43 3.43 0 01-.865 2.626 3.397 3.397 0 01-2.516 1.12 3.381 3.381 0 01-2.516-1.12 3.418 3.418 0 01-.865-2.625zm5.306 0c0-1.562-.698-2.475-1.923-2.475-1.23 0-1.921.913-1.921 2.475 0 1.574.692 2.48 1.921 2.48 1.225 0 1.923-.912 1.923-2.48zm10.441 3.606h-1.467l-1.482-5.306h-.112l-1.475 5.306h-1.454L80.04 15.28h1.435l1.284 5.498h.106l1.474-5.498h1.357l1.474 5.498h.112l1.278-5.498h1.415l-1.969 7.205zm3.635-7.206h1.363v1.145h.105a2.151 2.151 0 012.139-1.284 2.32 2.32 0 011.882.74 2.344 2.344 0 01.6 1.94v4.663h-1.415v-4.306c0-1.158-.5-1.734-1.547-1.734a1.634 1.634 0 00-1.273.517 1.656 1.656 0 00-.439 1.309v4.215h-1.414v-7.205zm8.337-2.811h1.414v10.017h-1.414V12.468zm3.382 6.411c-.044-.474.01-.951.159-1.403a3.414 3.414 0 011.849-2.043 3.382 3.382 0 013.887.825 3.416 3.416 0 01.868 2.621 3.423 3.423 0 01-.865 2.625 3.389 3.389 0 01-5.74-1.22 3.43 3.43 0 01-.158-1.405zm5.307 0c0-1.562-.698-2.475-1.923-2.475-1.23 0-1.922.913-1.922 2.475 0 1.574.692 2.48 1.922 2.48 1.225 0 1.923-.912 1.923-2.48zm2.943 1.568c0-1.297.961-2.045 2.667-2.15l1.942-.113v-.622c0-.761-.5-1.19-1.468-1.19-.79 0-1.336.29-1.494.8h-1.37c.145-1.238 1.304-2.031 2.93-2.031 1.797 0 2.81.899 2.81 2.42v4.923h-1.362v-1.012h-.112a2.402 2.402 0 01-2.153 1.131 2.15 2.15 0 01-1.671-.545 2.18 2.18 0 01-.719-1.611zm4.609-.616v-.602l-1.75.112c-.988.067-1.436.404-1.436 1.04 0 .648.559 1.025 1.329 1.025a1.679 1.679 0 001.261-.392 1.692 1.692 0 00.596-1.183zm3.274-.951c0-2.277 1.164-3.72 2.976-3.72a2.356 2.356 0 012.199 1.265h.105v-3.957h1.415v10.017h-1.356v-1.138h-.112a2.489 2.489 0 01-2.251 1.257c-1.824 0-2.976-1.442-2.976-3.724zm1.462 0c0 1.528.716 2.447 1.915 2.447 1.193 0 1.93-.933 1.93-2.441 0-1.502-.745-2.448-1.93-2.448-1.19 0-1.915.926-1.915 2.442zm11.086-.001a3.404 3.404 0 01.158-1.403 3.398 3.398 0 013.222-2.335 3.382 3.382 0 012.513 1.117 3.432 3.432 0 01.868 2.62 3.425 3.425 0 01-2.006 3.452 3.377 3.377 0 01-3.89-.826 3.408 3.408 0 01-.865-2.625zm5.305 0c0-1.562-.697-2.475-1.923-2.475-1.23 0-1.922.913-1.922 2.475 0 1.574.692 2.48 1.922 2.48 1.226 0 1.923-.912 1.923-2.48zm3.35-3.6h1.362v1.145h.106a2.148 2.148 0 012.139-1.284 2.322 2.322 0 011.881.74 2.355 2.355 0 01.601 1.94v4.663h-1.416v-4.306c0-1.158-.5-1.734-1.546-1.734a1.64 1.64 0 00-1.635 1.123 1.641 1.641 0 00-.077.703v4.215h-1.415v-7.205zm14.086-1.794v1.827h1.553v1.197h-1.553v3.705c0 .755.31 1.085 1.014 1.085.179 0 .36-.011.539-.032v1.184c-.254.046-.511.07-.77.073-1.573 0-2.2-.557-2.2-1.946V16.51h-1.137v-1.197h1.137v-1.827h1.417zm3.485-1.017h1.402v3.97h.112a2.199 2.199 0 012.186-1.29 2.352 2.352 0 011.863.759c.236.256.412.562.518.895a2.4 2.4 0 01.088 1.031v4.652h-1.416v-4.3c0-1.152-.533-1.734-1.534-1.734a1.667 1.667 0 00-1.325.491 1.714 1.714 0 00-.387.614c-.082.23-.113.477-.092.721v4.208h-1.415V12.468zm14.417 8.072a2.919 2.919 0 01-1.177 1.608 2.898 2.898 0 01-1.929.476 3.245 3.245 0 01-2.512-1.09 3.282 3.282 0 01-.8-2.63 3.349 3.349 0 01.798-2.64 3.31 3.31 0 012.507-1.123c1.995 0 3.198 1.37 3.198 3.632v.496h-5.061v.08a1.901 1.901 0 001.908 2.064 1.715 1.715 0 001.706-.874h1.362zm-4.976-2.323h3.62a1.746 1.746 0 00-1.06-1.733 1.732 1.732 0 00-.704-.133 1.83 1.83 0 00-1.722 1.149 1.838 1.838 0 00-.134.717z" fill="#fff"/><path d="M191.065.47H7.535A7.059 7.059 0 00.477 7.53v48.94a7.059 7.059 0 007.058 7.06h183.53a7.06 7.06 0 007.059-7.06V7.53a7.06 7.06 0 00-7.059-7.06z" stroke="#525252"/></g><defs><clipPath id="clip0_1801_19182"><path fill="#fff" d="M0 0h198.588v64H0z"/></clipPath></defs></svg>