<svg width="36" height="36" fill="none" xmlns="http://www.w3.org/2000/svg"><path d="M19.578 8.069c-2.002 0-4.228.792-4.228 3.523.01.951 0 1.862 0 2.888h-2.316v3.468h2.388v9.983h4.386v-10.05h2.896l.261-3.41h-3.232s.007-1.518 0-1.96c0-1.078 1.193-1.016 1.264-1.016h1.955V8.069h-3.374z" fill="#fff"/><path fill-rule="evenodd" clip-rule="evenodd" d="M8.703 33.854c2.232.28 5.16.284 9.297.284 4.137 0 7.064-.003 9.297-.284 2.186-.276 3.445-.79 4.377-1.63.193-.173.377-.357.55-.55.84-.932 1.355-2.19 1.63-4.377.28-2.233.284-5.16.284-9.297 0-4.137-.003-7.065-.284-9.297-.276-2.186-.79-3.445-1.63-4.377a7.438 7.438 0 00-.55-.55c-.932-.84-2.19-1.355-4.377-1.63-2.233-.28-5.16-.284-9.297-.284-4.137 0-7.065.004-9.297.284-2.186.275-3.445.79-4.377 1.63a7.447 7.447 0 00-.55.55c-.84.932-1.355 2.19-1.63 4.377-.28 2.232-.284 5.16-.284 9.297 0 4.137.004 7.064.284 9.297.275 2.186.79 3.445 1.63 4.377.173.193.357.377.55.55.932.84 2.19 1.355 4.377 1.63zM2.39 3.08C0 5.736 0 9.824 0 18s0 12.264 2.391 14.92c.218.241.448.471.69.689C5.736 36 9.824 36 18 36s12.264 0 14.92-2.391c.241-.218.471-.448.689-.69C36 30.264 36 26.176 36 18s0-12.264-2.391-14.92a9.303 9.303 0 00-.69-.689C30.264 0 26.176 0 18 0S5.736 0 3.08 2.391a9.31 9.31 0 00-.689.69z" fill="#fff"/></svg>