<svg width="36" height="36" fill="none" xmlns="http://www.w3.org/2000/svg"><path fill-rule="evenodd" clip-rule="evenodd" d="M18 23.586a5.586 5.586 0 100-11.172 5.586 5.586 0 000 11.172zm0 2.483a8.069 8.069 0 100-16.138 8.069 8.069 0 000 16.138z" fill="#fff"/><path d="M29.793 8.69a2.483 2.483 0 11-4.966 0 2.483 2.483 0 014.966 0z" fill="#fff"/><path fill-rule="evenodd" clip-rule="evenodd" d="M8.703 33.854c2.232.28 5.16.284 9.297.284 4.137 0 7.064-.003 9.297-.284 2.186-.276 3.445-.79 4.377-1.63.193-.173.377-.357.55-.55.84-.932 1.355-2.19 1.63-4.377.28-2.233.284-5.16.284-9.297 0-4.137-.003-7.065-.284-9.297-.276-2.186-.79-3.445-1.63-4.377a7.438 7.438 0 00-.55-.55c-.932-.84-2.19-1.355-4.377-1.63-2.233-.28-5.16-.284-9.297-.284-4.137 0-7.065.004-9.297.284-2.186.275-3.445.79-4.377 1.63a7.447 7.447 0 00-.55.55c-.84.932-1.355 2.19-1.63 4.377-.28 2.232-.284 5.16-.284 9.297 0 4.137.004 7.064.284 9.297.275 2.186.79 3.445 1.63 4.377.173.193.357.377.55.55.932.84 2.19 1.355 4.377 1.63zM2.39 3.08C0 5.736 0 9.824 0 18s0 12.264 2.391 14.92c.218.241.448.471.69.689C5.736 36 9.824 36 18 36s12.264 0 14.92-2.391c.241-.218.471-.448.689-.69C36 30.264 36 26.176 36 18s0-12.264-2.391-14.92a9.303 9.303 0 00-.69-.689C30.264 0 26.176 0 18 0S5.736 0 3.08 2.391a9.31 9.31 0 00-.689.69z" fill="#fff"/></svg>