<svg width="160" height="46" fill="none" xmlns="http://www.w3.org/2000/svg"><g clip-path="url(#clip0_1263_19059)" fill="#fff"><path d="M92.841 23.322c-.05-3.75-1.3-6.848-3.803-9.298-2.501-2.4-5.654-3.6-9.507-3.6-3.852 0-7.055 1.2-9.556 3.6-2.552 2.45-3.803 5.499-3.803 9.248 0 3.75 1.25 6.799 3.803 9.198 2.501 2.4 5.704 3.6 9.556 3.6 3.053 0 5.805-.85 8.206-2.6 2.402-1.75 3.953-3.949 4.654-6.648h-6.555c-.95 2.249-3.403 3.949-6.254 3.949-3.403 0-6.105-2.25-6.905-5.5H92.64c.15-.55.2-1.199.2-1.949zm-13.26-7.598c3.153 0 5.905 1.85 6.906 4.599h-13.56c1.05-2.8 3.602-4.6 6.654-4.6zm41.614 7.598c-.05-3.75-1.301-6.848-3.802-9.298-2.502-2.4-5.654-3.6-9.507-3.6-3.853 0-7.055 1.2-9.557 3.6-2.552 2.45-3.803 5.499-3.803 9.248 0 3.75 1.251 6.799 3.803 9.198 2.502 2.4 5.704 3.6 9.557 3.6 3.052 0 5.804-.85 8.206-2.6 2.401-1.75 3.953-3.949 4.653-6.648h-6.555c-.95 2.249-3.402 3.949-6.254 3.949-3.403 0-6.105-2.25-6.905-5.5h19.964c.15-.55.2-1.199.2-1.949zm-13.259-7.598c3.152 0 5.904 1.85 6.905 4.599h-13.56c1.051-2.8 3.603-4.6 6.655-4.6zm16.296 19.896h6.504V.927h-6.504V35.62zm22.218-9.148l-6.905-15.547h-6.955l10.808 22.045-6.355 12.548h6.805l16.162-34.593h-6.805l-6.755 15.547zm-88.023-15.55h7.435L48.825 35.618h-7.434l17.036-24.696z"/><path d="M42.063 10.922H60.31v5.57H42.062v-5.57zm5.031 19.128h17.545v5.569H47.094V30.05z"/><path fill-rule="evenodd" clip-rule="evenodd" d="M32.139 27.023a16.16 16.16 0 01-.343 1.216H.804a16.422 16.422 0 01-.342-1.216H32.14zM7.733 37.06h17.133H7.734zm-1.71-1.216c-.467-.38-.914-.787-1.337-1.217h23.226c-.422.43-.869.836-1.337 1.217H6.025zM1.82 30.671c.272.526.57 1.034.896 1.525h27.17c.326-.49.625-1 .896-1.525H1.82zM16.3 39.49c-2.189 0-4.277-.432-6.183-1.214h12.367A16.251 16.251 0 0116.3 39.49zM.073 24.6a16.453 16.453 0 01-.057-1.223h32.569c-.004.411-.023.82-.057 1.223H.073zm.1-3.654c.072-.517.17-1.026.289-1.527h31.677c.12.5.216 1.01.289 1.527H.173zm1.08-3.957c.172-.415.36-.82.566-1.217h28.963c.205.396.394.802.566 1.217H1.253zM3.36 13.34c.325-.423.67-.83 1.033-1.218h23.813c.363.389.708.795 1.032 1.219H3.361zM16.3 6.952c3.345 0 6.456 1.009 9.043 2.737H7.257A16.222 16.222 0 0116.3 6.952z"/><path fill-rule="evenodd" clip-rule="evenodd" d="M13.99 13.34c.68-.887 1.45-1.702 2.296-2.432H5.644a16.373 16.373 0 00-2.296 2.433H13.99zm-.848 1.217H2.5c-.486.77-.91 1.582-1.262 2.432h10.64a16.21 16.21 0 011.263-2.432zM.159 20.944c.132-.941.344-1.857.63-2.739H11.43a16.158 16.158 0 00-.63 2.739H.158zM.034 22.16a16.496 16.496 0 00.023 2.43h10.64a16.469 16.469 0 01-.022-2.43H.035zm.755 6.08c-.255-.786-.452-1.6-.585-2.433h10.64c.134.834.33 1.647.586 2.433H.79zm.45 1.217c.4.962.889 1.877 1.458 2.736h10.64a16.212 16.212 0 01-1.458-2.736H1.239zm4.768 6.386a16.379 16.379 0 01-2.42-2.434h10.64c.718.894 1.53 1.71 2.42 2.434H6.006zm1.707 1.216a16.221 16.221 0 008.571 2.433 16.28 16.28 0 005.32-.888 16.228 16.228 0 01-3.252-1.545H7.715zM21.607 7.843a16.23 16.23 0 00-3.723 1.848H7.242a16.222 16.222 0 019.043-2.736c1.864 0 3.654.312 5.322.888z"/></g><defs><clipPath id="clip0_1263_19059"><path fill="#fff" transform="translate(0 .5)" d="M0 0h160v45H0z"/></clipPath></defs></svg>