<svg width="200" height="64" fill="none" xmlns="http://www.w3.org/2000/svg"><g clip-path="url(#clip0_1801_19208)"><path d="M191.651.47H8.121a7.059 7.059 0 00-7.059 7.06v48.94a7.059 7.059 0 007.06 7.06H191.65a7.06 7.06 0 007.059-7.06V7.53A7.06 7.06 0 00191.65.47z" fill="#000"/><path d="M71.132 19.909c0 1.064-.286 1.995-1.001 2.66-.859.798-1.86 1.197-3.148 1.197s-2.29-.399-3.148-1.197c-.859-.798-1.288-1.73-1.288-2.926 0-1.197.43-2.128 1.288-2.926.858-.798 1.86-1.197 3.148-1.197.572 0 1.144.133 1.717.399.572.266 1.001.532 1.288.93l-.716.666c-.572-.665-1.288-.931-2.29-.931-.858 0-1.716.266-2.289.93-.715.533-1.001 1.33-1.001 2.262 0 .93.286 1.729 1.001 2.261.716.532 1.431.931 2.29.931 1.001 0 1.717-.266 2.432-.931.43-.4.716-.931.716-1.596h-3.148v-.931h4.15v.399zm6.58-3.325h-3.864v2.527h3.577v.932h-3.577v2.527h3.864v1.064h-5.009v-7.98h5.008v.93zm4.725 7.05h-1.145v-7.05h-2.433v-.93h6.01v.93h-2.432v7.05zm6.579 0v-7.98h1.144v7.98h-1.144zm6.014 0h-1.144v-7.05h-2.433v-.93h5.867v.93h-2.433v7.05h.143zm13.593-1.065c-.859.798-1.861 1.197-3.148 1.197-1.289 0-2.29-.399-3.148-1.197-.859-.798-1.288-1.73-1.288-2.926 0-1.197.429-2.128 1.288-2.926.858-.798 1.859-1.197 3.148-1.197 1.287 0 2.289.399 3.148 1.197.858.798 1.288 1.729 1.288 2.926s-.43 2.128-1.288 2.926zm-5.438-.665c.572.532 1.431.931 2.29.931.858 0 1.717-.266 2.289-.931a3.098 3.098 0 001.002-2.261c0-.931-.286-1.73-1.002-2.261-.572-.532-1.431-.931-2.289-.931-.859 0-1.718.266-2.29.93a3.102 3.102 0 00-1.001 2.262c0 .93.286 1.729 1.001 2.26zm8.299 1.73v-7.98h1.289l4.15 6.25v-6.25h1.144v7.98h-1.144l-4.436-6.517v6.518h-1.003z" fill="#fff" stroke="#fff" stroke-width=".2" stroke-miterlimit="10"/><path d="M100.864 35.016c-3.43 0-6.144 2.535-6.144 6.055 0 3.38 2.714 6.055 6.144 6.055s6.145-2.535 6.145-6.055c0-3.661-2.715-6.055-6.145-6.055zm0 9.575c-1.858 0-3.43-1.549-3.43-3.66 0-2.113 1.572-3.662 3.43-3.662s3.43 1.408 3.43 3.661c0 2.112-1.572 3.661-3.43 3.661zm-13.29-9.575c-3.429 0-6.144 2.535-6.144 6.055 0 3.38 2.715 6.055 6.144 6.055 3.43 0 6.145-2.535 6.145-6.055 0-3.661-2.715-6.055-6.144-6.055zm0 9.575c-1.857 0-3.429-1.549-3.429-3.66 0-2.113 1.572-3.662 3.43-3.662 1.857 0 3.43 1.408 3.43 3.661 0 2.112-1.573 3.661-3.43 3.661zm-15.861-7.745v2.535h6.144c-.142 1.408-.714 2.535-1.429 3.239-.857.845-2.286 1.83-4.715 1.83-3.859 0-6.717-2.957-6.717-6.759 0-3.802 3.001-6.759 6.717-6.759 2 0 3.572.845 4.715 1.83l1.858-1.83c-1.572-1.408-3.573-2.534-6.43-2.534-5.145 0-9.575 4.224-9.575 9.293 0 5.07 4.43 9.294 9.575 9.294 2.858 0 4.858-.845 6.573-2.675 1.715-1.69 2.286-4.084 2.286-5.915 0-.563 0-1.126-.143-1.549h-8.86zm64.876 1.972c-.571-1.408-2.001-3.802-5.144-3.802-3.144 0-5.716 2.394-5.716 6.055 0 3.38 2.572 6.055 6.002 6.055 2.715 0 4.43-1.69 5.001-2.675l-2.001-1.409c-.714.986-1.572 1.69-3 1.69-1.429 0-2.286-.563-3.002-1.83l8.146-3.38-.286-.704zm-8.288 1.971c0-2.253 1.858-3.52 3.144-3.52 1 0 2.001.563 2.286 1.267l-5.43 2.253zm-6.716 5.774h2.715V28.96h-2.715v17.602zm-4.287-10.28c-.715-.704-1.858-1.408-3.287-1.408-3.001 0-5.859 2.675-5.859 6.055a5.873 5.873 0 005.859 5.914c1.429 0 2.572-.704 3.144-1.408h.143v.845c0 2.253-1.287 3.52-3.287 3.52-1.572 0-2.715-1.126-3.001-2.112l-2.286.986c.714 1.549 2.429 3.52 5.43 3.52 3.144 0 5.716-1.83 5.716-6.196V35.297h-2.572v.986zm-3.144 8.308c-1.858 0-3.429-1.549-3.429-3.66 0-2.113 1.571-3.662 3.429-3.662 1.857 0 3.287 1.549 3.287 3.661s-1.43 3.661-3.287 3.661zm34.867-15.63h-6.43v17.602h2.715v-6.619h3.715c3.002 0 5.859-2.112 5.859-5.491 0-3.38-2.857-5.492-5.859-5.492zm.143 8.449h-3.858v-6.055h3.858c2.001 0 3.144 1.69 3.144 2.957-.142 1.549-1.286 3.098-3.144 3.098zm16.434-2.535c-2.001 0-4.001.845-4.716 2.675l2.429.986c.572-.986 1.43-1.267 2.43-1.267 1.429 0 2.714.845 2.858 2.253v.14c-.429-.28-1.572-.703-2.716-.703-2.572 0-5.143 1.408-5.143 3.943 0 2.393 2.143 3.942 4.429 3.942 1.858 0 2.715-.845 3.43-1.69h.143v1.409h2.572v-6.76c-.286-3.097-2.715-4.928-5.716-4.928zm-.286 9.716c-.858 0-2.143-.422-2.143-1.549 0-1.408 1.572-1.83 2.857-1.83 1.144 0 1.715.281 2.429.563-.285 1.69-1.714 2.816-3.143 2.816zm15.004-9.294l-3 7.605h-.143l-3.144-7.605h-2.858L175.887 46l-2.715 5.914h2.715l7.287-16.617h-2.858zM156.31 46.563h2.715V28.96h-2.715v17.602z" fill="#fff"/><path d="M17.11 14.515c-.469.437-.782 1.165-.782 2.038v32.16c0 .872.313 1.6.783 2.036l.156.146L36.68 32.851v-.291L17.11 14.515z" fill="url(#paint0_linear_1801_19208)"/><path d="M43.098 38.962l-6.418-5.966v-.437l6.418-5.966.157.145 7.67 4.075c2.193 1.164 2.193 3.056 0 4.22l-7.827 3.929z" fill="url(#paint1_linear_1801_19208)"/><path d="M43.254 38.817l-6.576-6.112-19.569 18.19c.783.727 1.879.727 3.288.145l22.857-12.223z" fill="url(#paint2_linear_1801_19208)"/><path d="M43.254 26.593L20.397 14.514c-1.409-.727-2.505-.582-3.288.146l19.57 18.044 6.575-6.111z" fill="url(#paint3_linear_1801_19208)"/><path opacity=".2" d="M43.09 38.67l-22.7 11.933c-1.253.728-2.35.582-3.132 0l-.156.146.156.145c.783.583 1.879.728 3.131 0l22.7-12.223z" fill="#fff"/><path opacity=".12" d="M17.11 50.604c-.47-.437-.626-1.165-.626-2.038v.146c0 .873.313 1.6.783 2.037v-.145h-.157zm33.811-16.007l-7.827 4.074.156.146 7.671-4.075c1.096-.582 1.566-1.31 1.566-2.037 0 .728-.626 1.31-1.566 1.892z" fill="#fff"/><path opacity=".25" d="M20.39 14.66l30.528 16.153c.94.582 1.566 1.164 1.566 1.892 0-.728-.47-1.455-1.566-2.038L20.39 14.515c-2.191-1.164-3.913-.146-3.913 2.183v.145c0-2.328 1.722-3.347 3.913-2.182z" fill="#1E1E30"/><path d="M191.651.47H8.121a7.059 7.059 0 00-7.059 7.06v48.94a7.059 7.059 0 007.06 7.06H191.65a7.06 7.06 0 007.059-7.06V7.53A7.06 7.06 0 00191.65.47z" stroke="#525252"/></g><defs><linearGradient id="paint0_linear_1801_19208" x1="34.957" y1="16.276" x2="10.601" y2="42.479" gradientUnits="userSpaceOnUse"><stop stop-color="#00A0FF"/><stop offset=".007" stop-color="#00A1FF"/><stop offset=".26" stop-color="#00BEFF"/><stop offset=".512" stop-color="#00D2FF"/><stop offset=".76" stop-color="#00DFFF"/><stop offset="1" stop-color="#00E3FF"/></linearGradient><linearGradient id="paint1_linear_1801_19208" x1="53.798" y1="32.707" x2="15.917" y2="32.707" gradientUnits="userSpaceOnUse"><stop stop-color="#FFE000"/><stop offset=".409" stop-color="#FFBD00"/><stop offset=".775" stop-color="orange"/><stop offset="1" stop-color="#FF9C00"/></linearGradient><linearGradient id="paint2_linear_1801_19208" x1="39.695" y1="36.046" x2="6.666" y2="71.58" gradientUnits="userSpaceOnUse"><stop stop-color="#FF3A44"/><stop offset="1" stop-color="#C31162"/></linearGradient><linearGradient id="paint3_linear_1801_19208" x1="12.252" y1="3.857" x2="27.001" y2="19.724" gradientUnits="userSpaceOnUse"><stop stop-color="#32A071"/><stop offset=".069" stop-color="#2DA771"/><stop offset=".476" stop-color="#15CF74"/><stop offset=".801" stop-color="#06E775"/><stop offset="1" stop-color="#00F076"/></linearGradient><clipPath id="clip0_1801_19208"><path fill="#fff" transform="translate(.586)" d="M0 0h198.588v64H0z"/></clipPath></defs></svg>