<svg width="36" height="36" fill="none" xmlns="http://www.w3.org/2000/svg"><path d="M14.546 25.448c7.027 0 10.87-5.73 10.87-10.7 0-.162-.004-.324-.011-.486a7.703 7.703 0 001.905-1.947c-.684.3-1.42.501-2.194.592a3.785 3.785 0 001.68-2.08c-.75.438-1.57.747-2.425.913a3.844 3.844 0 00-2.79-1.188c-2.109 0-3.82 1.684-3.82 3.76 0 .295.034.582.1.857a10.906 10.906 0 01-7.876-3.929 3.705 3.705 0 00-.517 1.89c0 1.305.675 2.457 1.7 3.13a3.838 3.838 0 01-1.73-.47v.048c0 1.822 1.316 3.342 3.064 3.687a3.883 3.883 0 01-1.725.064 3.817 3.817 0 003.569 2.612 7.742 7.742 0 01-4.745 1.61 7.91 7.91 0 01-.911-.052 10.939 10.939 0 005.856 1.69z" fill="#fff"/><path fill-rule="evenodd" clip-rule="evenodd" d="M8.703 33.854c2.232.28 5.16.284 9.297.284 4.137 0 7.064-.003 9.297-.284 2.186-.276 3.445-.79 4.377-1.63.193-.173.377-.357.55-.55.84-.932 1.355-2.19 1.63-4.377.28-2.233.284-5.16.284-9.297 0-4.137-.003-7.065-.284-9.297-.276-2.186-.79-3.445-1.63-4.377a7.438 7.438 0 00-.55-.55c-.932-.84-2.19-1.355-4.377-1.63-2.233-.28-5.16-.284-9.297-.284-4.137 0-7.065.004-9.297.284-2.186.275-3.445.79-4.377 1.63a7.447 7.447 0 00-.55.55c-.84.932-1.355 2.19-1.63 4.377-.28 2.232-.284 5.16-.284 9.297 0 4.137.004 7.064.284 9.297.275 2.186.79 3.445 1.63 4.377.173.193.357.377.55.55.932.84 2.19 1.355 4.377 1.63zM2.39 3.08C0 5.736 0 9.824 0 18s0 12.264 2.391 14.92c.218.241.448.471.69.689C5.736 36 9.824 36 18 36s12.264 0 14.92-2.391c.241-.218.471-.448.689-.69C36 30.264 36 26.176 36 18s0-12.264-2.391-14.92a9.303 9.303 0 00-.69-.689C30.264 0 26.176 0 18 0S5.736 0 3.08 2.391a9.31 9.31 0 00-.689.69z" fill="#fff"/></svg>